<svg width="1538" height="1026" viewBox="0 0 1538 1026" fill="none" xmlns="http://www.w3.org/2000/svg">
<g clip-path="url(#clip0)">
<path d="M-31.1436 527.873C-4.76534 520.74 22.8634 513.566 49.5518 519.435C54.8714 520.605 60.1149 522.289 65.5492 522.669C72.1684 523.131 78.7537 521.633 85.3775 521.249C103.832 520.176 121.889 527.739 140.371 527.356C149.278 527.171 158.274 525.146 167.013 526.886C173.636 528.203 179.737 531.63 186.422 532.588C197.012 534.103 207.519 529.268 218.22 529.252C227.503 529.239 236.362 532.839 245.446 534.753C254.533 536.668 265.002 536.54 271.884 530.306C289.819 536.551 308.687 525.402 327.317 521.725C335.793 520.055 344.492 520.02 353.129 519.991C356.041 519.981 359.062 519.995 361.701 521.226C365.378 522.942 367.814 526.8 371.64 528.144C379.062 530.75 385.989 522.804 393.783 521.778C400.567 520.886 406.824 525.33 413.535 526.66C419.525 527.846 425.694 526.51 431.801 526.424C437.906 526.338 444.736 527.99 447.94 533.192C480.248 541.777 514.297 524.046 546.583 532.724C551.351 534.006 556.176 535.896 561.067 535.227C566.54 534.478 571.316 530.592 576.836 530.386C587.627 529.982 594.933 543.333 605.726 543.651C614.874 543.917 622.224 534.622 631.372 534.87C635.09 534.973 638.547 536.666 642.068 537.866C652.375 541.375 664.067 540.601 673.823 535.767C700.584 522.503 732.964 527.062 762.631 523.627C766.535 523.174 770.456 522.722 774.387 522.833C778.415 522.946 782.401 523.646 786.369 524.343C801.548 527.015 816.725 529.689 831.904 532.36C836.734 533.21 841.67 534.064 846.513 533.3C850.338 532.699 853.955 531.109 857.778 530.487C874.568 527.764 888.066 543.47 897.776 557.444C878.906 575.762 854.958 586.082 830.422 595.533C810.737 603.115 791.02 610.708 770.764 616.591C733.456 627.43 694.733 632.354 656.644 640.006C588.978 653.599 523.008 675.861 454.528 684.469C445.852 685.561 435.414 688.76 427.297 692.022C314.443 737.39 195.025 769.118 73.474 773.22C43.1834 774.242 12.0718 773.403 -16.1377 762.318L-31.1436 527.873Z" fill="#4976AF"/>
</g>
<defs>
<clipPath id="clip0">
<rect width="1538" height="1026" fill="white"/>
</clipPath>
</defs>
</svg>
