<svg width="1538" height="1026" viewBox="0 0 1538 1026" fill="none" xmlns="http://www.w3.org/2000/svg">
<g clip-path="url(#clip0)">
<path d="M1538 475C1501.27 479.832 1464.53 484.664 1427.79 489.496C1415.04 491.172 1402.16 492.881 1390.12 497.38C1375.54 502.821 1362.57 512.211 1347.62 516.498C1337.43 519.419 1326.6 519.881 1316.63 523.489C1297.06 530.568 1283.23 548.806 1263.85 556.416C1248.7 562.368 1231.56 561.24 1216.18 566.587C1182.62 578.244 1162.07 618.652 1126.67 621.602C1116.33 622.466 1105.96 619.845 1095.6 620.529C1079.8 621.576 1065.58 630.14 1050.36 634.54C1034.12 639.235 1016.91 639.126 1000.23 641.908C969.709 646.996 941.717 661.587 914.316 675.972C892.234 687.564 865.233 683.765 840.41 686.168C807.566 689.35 776.896 706.436 743.903 706.981C721.388 707.352 698.995 699.942 676.637 702.625C655.289 705.183 635.16 716.845 613.71 715.4C596.984 714.272 581.548 705.22 564.818 704.183C537.1 702.466 512.713 722.663 485.243 726.744C472.307 728.667 459.097 726.936 446.06 727.975C433.021 729.012 419.16 733.612 412.045 744.587C390.863 777.269 340.565 780.525 301.725 783.303C283.284 784.621 264.524 782.107 246.406 785.775C225.121 790.084 206.152 802.655 184.794 806.583C161.459 810.878 137.026 804.531 113.856 809.646C88.2095 815.305 66.6219 834.477 40.5432 837.598C25.8455 839.36 7.37439 837.542 0 850.379V939H1536.45L1538 475" fill="#234886"/>
</g>
<defs>
<clipPath id="clip0">
<rect width="1538" height="1026" fill="white"/>
</clipPath>
</defs>
</svg>
