<svg width="1538" height="1026" viewBox="0 0 1538 1026" fill="none" xmlns="http://www.w3.org/2000/svg">
<g clip-path="url(#clip0)">
<path d="M-17.2015 321.581C6.12479 316.455 29.4503 311.329 52.7766 306.203C63.3656 303.876 74.0395 301.539 84.8791 301.344C108.338 300.924 130.675 310.474 152.319 319.533C163.039 324.021 174.046 328.492 185.65 329.135C193.896 329.592 202.112 328.092 210.236 326.596C226.065 323.686 241.893 320.775 257.72 317.863C278.366 314.067 297.492 307.976 317.269 300.938C325.636 297.961 334.027 294.973 342 291.053C363.774 280.354 382.982 262.582 407.057 259.611C427.197 257.126 446.906 265.57 465.446 273.825C490.314 284.895 513.909 296.865 539.614 305.822C555.439 311.335 571.601 315.846 587.881 319.814C620.628 327.797 653.904 333.604 687.416 337.182C709.354 339.524 728.928 326.773 750.56 322.441C771.9 318.169 793.473 313.82 813.212 304.652C826.449 298.502 838.657 290.274 852.011 284.384C887.442 268.763 930.315 271.28 963.678 290.943C982.45 302.005 1005.59 303.363 1026.52 309.396C1035.34 311.937 1044.19 314.483 1053.27 315.792C1069.08 318.074 1085.43 316.507 1100.51 311.262C1123.53 303.263 1147.36 297.934 1170.04 289.059C1192.73 280.182 1217.27 272.895 1241.19 277.469C1249.91 279.138 1258.32 282.351 1267.11 283.535C1273.41 284.38 1279.86 284.185 1286.27 283.988C1296 283.691 1305.67 283.395 1314.7 286.724C1329.52 292.188 1340.42 303.977 1354.45 311.233C1380.54 324.723 1409.3 332.026 1437.77 339.222C1470.97 347.613 1504.17 356.003 1537.37 364.394C1538.76 364.747 1540.41 365.346 1540.69 366.754C1540.97 368.166 1538.24 368.991 1538.28 367.554V725.058H-17.1375L-17.2015 321.581Z" fill="#6B96C4"/>
<path d="M600.675 451.824L550.512 423.857L695.988 337.375C695.994 337.375 696.001 337.375 696.005 337.373L665.175 413.819L630.775 410.95L600.675 451.824" fill="#709BC6"/>
<path d="M181.444 370.79L170.694 357.883L123.396 370.79L202.32 327.983C202.332 327.981 202.344 327.979 202.357 327.977L181.444 370.79" fill="#709BC6"/>
<path d="M976.726 421.704H867.266L1086.04 315.101C1086.08 315.091 1086.13 315.082 1086.17 315.074L1070.79 381.547L953.261 394.593L976.726 421.704" fill="#709BC6"/>
</g>
<defs>
<clipPath id="clip0">
<rect width="1538" height="1026" fill="white"/>
</clipPath>
</defs>
</svg>
