<svg width="1538" height="1026" viewBox="0 0 1538 1026" fill="none" xmlns="http://www.w3.org/2000/svg">
<g clip-path="url(#clip0)">
<path d="M705.776 281.592C706.266 281.305 707.898 280.529 708.999 280.529C710.101 280.529 710.591 280.857 711.081 281.101C711.571 281.346 711.938 281.469 712.346 281.469C712.754 281.469 712.305 281.713 711.815 281.959C711.325 282.203 710.837 283.264 709.98 283.96C709.122 284.653 706.959 288.084 704.796 289.145C702.634 290.206 700.022 290.452 698.635 291.228C697.249 292.004 695.984 294.249 695.33 294.495C694.678 294.739 692.922 292.289 692.311 291.431C691.698 290.573 693.494 289.718 694.758 289.595C696.025 289.471 697.37 288.329 696.677 288.002C695.984 287.676 691.495 281.101 690.72 279.06C689.945 277.018 689.046 269.341 687.699 266.973C686.354 264.605 686.844 259.379 687.373 259.176C687.904 258.971 690.923 263.586 692.147 265.178C693.371 266.77 693.97 267.667 694.216 267.708C694.46 267.749 694.799 266.565 694.799 265.381C694.799 264.197 694.514 262.484 697.452 266.28C700.389 270.078 703.776 272.038 703.573 274.038C703.368 276.037 703.45 277.835 703.573 279.265C703.694 280.693 704.061 282.123 704.061 282.123C704.061 282.123 705.288 281.877 705.776 281.592" fill="#0F1827"/>
<path d="M836.973 221.643C835.439 221.854 830.462 222.014 828.541 221.376C826.622 220.736 823.841 220.052 822.608 219.954C821.376 219.857 817.826 220.853 816.415 221.066C815.005 221.279 814.205 221.296 814.205 221.296C814.205 221.296 813.262 220.27 812.456 219.915C811.648 219.562 809.435 219.543 809.435 219.543C809.435 219.543 809.088 217.641 805.674 216.049C802.258 214.455 796.202 210.02 795.56 208.801C794.922 207.582 793.038 205.649 792.782 205.099C792.523 204.552 791.879 206.166 793.024 207.929C794.164 209.69 795.495 211.571 795.948 212.733C796.401 213.894 798.509 217.855 802.352 219.193C806.193 220.53 808.053 221.296 807.938 221.79C807.827 222.287 807.101 222.976 806.238 222.87C805.375 222.767 803.084 222.072 802.91 222.568C802.736 223.063 804.296 227.279 807.079 227.965C809.862 228.648 812.726 227.483 813.089 227.105C813.452 226.73 811.108 226.469 811.4 225.601C811.689 224.733 812.927 225.078 813.592 224.448C814.254 223.82 816.167 224.027 816.659 224.019C817.152 224.009 816.405 223.59 816.405 223.59C816.405 223.59 820.406 223.693 822.069 223.783C823.73 223.873 827.651 222.993 828.824 223.278C829.999 223.563 839.61 222.258 839.986 221.46C840.22 220.957 838.509 221.431 836.973 221.643" fill="#0F1827"/>
<path d="M762.397 274.453C763.055 274.141 763.223 274.137 763.68 273.874C764.138 273.61 765.157 273.294 765.479 273.429C765.479 273.429 765.317 272.545 764.925 272.11C764.536 271.675 764.224 271.045 763.988 270.909C763.748 270.774 763.317 270.638 763.281 270.53L764.251 270.564C764.251 270.564 764.687 270.012 765.924 270.341C767.16 270.669 767.745 271.543 768.102 271.789C768.102 271.789 768.924 271.114 769.217 269.688C769.513 268.262 769.734 266.978 770.421 266.263C771.106 265.551 773.015 263.746 774.01 262.143C775.008 260.536 775.911 259.147 776.226 259.17C776.542 259.194 776.811 263.247 775.759 265.531C774.707 267.815 774.204 268.104 773.866 268.755C773.528 269.405 773.718 270.088 773.165 271.531C772.613 272.971 771.561 274.373 771.434 274.644C771.303 274.913 771.539 275.407 771.805 275.783C772.068 276.16 772.898 276.761 773.29 277.032C773.681 277.303 774.065 277.428 773.942 277.648C773.819 277.868 773.511 278.512 773.044 278.711C772.574 278.912 772.002 278.82 771.692 278.746C771.385 278.672 771.411 277.556 771.067 277.373C770.722 277.19 769.182 276.265 768.862 276.21C768.541 276.154 767.577 276.509 766.48 275.863C765.378 275.214 764.983 275.188 764.216 275.181C763.447 275.175 761.683 275.45 761.521 275.364C761.357 275.28 761.948 274.666 762.397 274.453" fill="#0F1827"/>
<path d="M825.551 319.976C825.551 319.976 825.724 316.059 832.146 311.918C838.571 307.777 849.517 297.201 850.469 294.579C851.416 291.954 854.671 287.553 855.036 286.381C855.403 285.209 857.14 288.271 855.331 292.127C853.518 295.982 851.365 300.128 850.772 302.584C850.18 305.04 847.032 313.574 839.682 317.321C832.335 321.068 828.806 323.114 829.169 324.076C829.532 325.039 831.176 326.229 832.882 325.78C834.589 325.328 839 323.307 839.486 324.255C839.972 325.203 837.997 334.102 832.595 336.241C827.194 338.379 821.112 336.827 820.283 336.169C819.453 335.512 824.085 334.345 823.265 332.68C822.445 331.018 820.053 332.05 818.546 330.971C817.039 329.89 813.256 330.834 812.265 330.949C811.275 331.063 812.659 330.023 812.659 330.023C812.659 330.023 804.651 331.324 801.335 331.962C798.017 332.6 789.903 331.915 787.62 332.81C785.34 333.704 765.676 333.729 764.7 332.227C764.089 331.283 767.661 331.765 770.799 331.765C773.938 331.767 783.988 330.721 787.669 328.909C791.35 327.097 796.752 324.959 799.2 324.423C801.649 323.886 809.05 324.916 811.943 324.955C814.837 324.994 816.448 324.807 816.448 324.807C816.448 324.807 818.06 322.482 819.584 321.552C821.105 320.621 825.551 319.976 825.551 319.976" fill="#0F1827"/>
<path d="M735.695 354.696C733.622 354.982 726.898 355.199 724.306 354.335C721.712 353.471 717.957 352.548 716.292 352.417C714.627 352.285 709.832 353.631 707.929 353.919C706.022 354.208 704.943 354.226 704.943 354.226C704.943 354.226 703.67 352.841 702.579 352.361C701.488 351.885 698.5 351.863 698.5 351.863C698.5 351.863 698.033 349.293 693.421 347.143C688.807 344.99 680.629 338.999 679.763 337.353C678.898 335.707 676.355 333.097 676.008 332.352C675.66 331.613 674.792 333.793 676.335 336.175C677.877 338.553 679.673 341.094 680.284 342.663C680.899 344.231 683.746 349.579 688.934 351.389C694.122 353.196 696.634 354.226 696.48 354.897C696.329 355.566 695.348 356.496 694.183 356.354C693.019 356.213 689.924 355.277 689.688 355.946C689.453 356.613 691.561 362.309 695.32 363.233C699.074 364.156 702.946 362.582 703.436 362.075C703.926 361.564 700.762 361.214 701.154 360.042C701.545 358.87 703.215 359.336 704.115 358.484C705.011 357.637 707.593 357.916 708.257 357.904C708.924 357.891 707.915 357.327 707.915 357.327C707.915 357.327 713.32 357.465 715.564 357.586C717.807 357.709 723.102 356.521 724.687 356.906C726.274 357.29 739.253 355.529 739.764 354.45C740.077 353.771 737.766 354.411 735.695 354.696" fill="#0F1827"/>
</g>
<defs>
<clipPath id="clip0">
<rect width="1538" height="1026" fill="white"/>
</clipPath>
</defs>
</svg>
