<svg width="1538" height="1026" viewBox="0 0 1538 1026" fill="none" xmlns="http://www.w3.org/2000/svg">
<g clip-path="url(#clip0)">
<path d="M-29.9901 345.327C-16.5254 348.393 -3.06072 351.46 10.4032 354.526C15.5074 355.687 20.6462 356.861 25.4404 358.962C30.7336 361.281 35.4942 364.683 40.7515 367.086C52.1992 372.319 65.1953 372.51 77.6211 374.508C110.981 379.879 141.361 398.64 175 401.829C181.624 402.457 188.358 402.477 194.8 404.148C200.957 405.742 206.631 408.791 212.634 410.894C230.173 417.034 251.484 415.667 264.63 428.806C275.15 439.323 292.077 439.6 306.429 443.488C318.024 446.626 328.435 453.147 339.855 456.867C367.531 465.882 400.315 458.341 424.587 474.412C430.236 478.155 435.211 483.084 441.517 485.565C450.154 488.965 460.703 487.526 468.032 493.229C496.635 515.477 539.223 500.809 575.45 500.832C594.843 500.844 614.304 500.852 633.535 498.338C663.323 494.446 691.965 484.59 720.364 474.792C742.499 467.156 766.865 476.571 790.274 476.924C805.278 477.151 820.687 477.457 834.585 483.117C842.412 486.303 849.524 491.105 857.456 494.017C865.511 496.974 874.156 497.891 882.435 500.154C905.259 506.39 924.715 522.665 948.025 526.724C956.72 528.24 963.869 536.869 966.17 545.395C966.496 546.593 966.676 547.898 966.235 549.058C965.146 551.9 961.324 552.191 958.285 552.148C923.645 551.678 891.433 570.411 856.933 573.546C838.337 575.235 819.576 572.336 800.947 573.63C736.692 578.091 682.054 631.236 617.657 629.919C594.712 629.449 572.589 621.969 550.352 616.296C503.055 604.224 453.733 600.148 405.099 604.289C363.161 604.178 321.262 600.405 279.469 596.91C179.437 588.54 79.4041 580.172 -20.6276 571.804L-29.9901 345.327" fill="#5582B5"/>
</g>
<defs>
<clipPath id="clip0">
<rect width="1538" height="1026" fill="white"/>
</clipPath>
</defs>
</svg>
