<svg width="1538" height="1026" viewBox="0 0 1538 1026" fill="none" xmlns="http://www.w3.org/2000/svg">
<g clip-path="url(#clip0)">
<path fill-rule="evenodd" clip-rule="evenodd" d="M1030.91 813.246C1032.98 811.638 1035.85 810.584 1039.64 810.376C1044.69 810.107 1049.37 813.816 1052.63 816.609C1053.2 817.095 1053.73 817.628 1054.23 818.179L1054.23 818.223C1055.14 819.219 1056.01 820.258 1056.82 821.322C1054.17 809.82 1054.19 797.314 1060.83 786.344C1064.11 780.945 1067.59 788.193 1069.83 794.796C1070.25 791.31 1071.43 788.013 1074.57 787.368C1081.78 785.906 1087.85 790.425 1093.08 794.324C1093.76 794.832 1094.43 795.329 1095.08 795.802C1100.05 799.388 1098.76 797.586 1097.13 795.292C1096.49 794.397 1095.8 793.428 1095.4 792.674C1095.36 792.598 1095.31 792.504 1095.25 792.394C1094.55 791.099 1092.66 787.621 1094.48 786.358C1098.88 783.311 1103.99 785.859 1108.68 788.205C1109.86 788.792 1111.01 789.366 1112.12 789.837C1111.63 788.629 1110.91 787.214 1110.16 785.746C1107.08 779.708 1103.54 772.774 1113.9 775.637C1118.83 777.009 1123.28 779.988 1127.23 783.29C1126.69 779.127 1127.12 775.214 1129.08 772.29C1129.38 771.848 1130.08 771.511 1130.62 771.522C1138.86 771.662 1146.41 780.771 1150.1 789.732C1150.86 788.35 1151.86 786.978 1153.35 785.565C1154.09 784.866 1155.36 785.656 1155.8 786.151C1158.09 788.711 1158.21 792.467 1158 796.164C1159.05 794.618 1160.34 793.583 1161.85 794.436C1165.29 796.364 1165.5 800.851 1165.55 804.909C1169.64 799.037 1175.4 795.064 1182.4 791.548C1182.88 791.306 1183.51 790.955 1184.26 790.545C1188.06 788.448 1194.66 784.807 1197.83 786.339C1204.08 789.381 1196.05 802.884 1189.98 810.221C1190.43 810.065 1190.87 809.904 1191.32 809.744C1193.51 808.955 1195.69 808.169 1198.09 807.901C1199.64 803.641 1201.76 799.566 1203.09 797.087C1203.74 795.893 1205.73 796.866 1206.21 797.515C1208.74 800.851 1209.69 805.196 1209.93 809.76C1212.56 804.789 1216.21 800.874 1220.98 801.721C1224.7 802.378 1224.52 808.128 1223.38 813.762C1225.48 810.923 1227.94 808.361 1231.76 806.64C1234.98 805.184 1241.2 802.56 1244.75 804.591C1243.64 797.897 1243.51 790.794 1247.48 789.581C1250.64 788.61 1255.21 792.091 1259.34 796.044C1259.98 795.159 1261.33 794.457 1263.79 794.11C1271.37 793.029 1280.69 794.157 1288.55 797.269C1284.72 793.24 1282.23 788.203 1282.98 783.302C1284 776.501 1296.69 783.257 1302.5 786.598C1302.36 785.777 1302.17 784.858 1301.97 783.882C1300.39 776.083 1298.06 764.609 1309.6 769.97C1311.81 770.989 1314 772.77 1316.05 774.904C1318.73 770.435 1323.73 767.857 1331.42 769.857C1336.51 771.181 1340.04 776.342 1342.44 780.145C1343.62 782.021 1344.43 784.104 1345.18 786.151C1346.01 773.898 1349.76 761.501 1359.64 752.717C1364.51 748.399 1365.79 756.69 1366.03 763.948C1367.49 760.619 1369.65 757.719 1372.96 758.078C1380.56 758.912 1385.22 765.322 1389.25 770.847C1389.77 771.563 1390.28 772.265 1390.78 772.937C1394.63 778.057 1393.9 775.88 1392.97 773.092C1392.6 771.997 1392.21 770.808 1392.04 769.929C1392.03 769.844 1392 769.737 1391.98 769.614C1391.67 768.118 1390.83 764.053 1393.02 763.377C1398.29 761.747 1402.59 765.886 1406.55 769.698C1407.54 770.653 1408.51 771.586 1409.47 772.404C1409.35 771.049 1409.06 769.414 1408.75 767.718C1407.51 760.757 1406.08 752.768 1415.49 758.882C1419.98 761.805 1423.5 766.169 1426.43 770.691C1427.14 766.392 1428.73 762.648 1431.56 760.369C1431.99 760.022 1432.78 759.911 1433.32 760.101C1441.44 762.84 1446.21 774.266 1447.19 784.323C1448.35 783.195 1449.75 782.147 1451.66 781.212C1452.6 780.757 1453.63 781.945 1453.91 782.573C1455.42 785.837 1454.42 789.6 1453.1 793.197C1454.6 791.996 1456.2 791.383 1457.44 792.707C1460.27 795.711 1459.14 800.227 1457.97 804.267C1463.78 799.732 1470.7 797.614 1478.68 796.341C1479.23 796.254 1479.97 796.107 1480.83 795.935C1485.24 795.056 1492.87 793.534 1495.56 796.06C1500.85 801.052 1488.83 811.911 1480.61 817.268C1481.09 817.254 1481.57 817.236 1482.05 817.218C1484.48 817.126 1486.89 817.034 1489.35 817.531C1492.17 813.795 1495.5 810.419 1497.56 808.386C1498.55 807.403 1500.25 809.002 1500.52 809.793C1502.03 813.905 1501.68 818.518 1500.55 823.119C1504.65 819.02 1509.44 816.291 1513.92 818.642C1517.41 820.468 1515.5 826.113 1512.69 831.342C1515.63 829.193 1518.84 827.429 1523.13 826.933C1527.04 826.477 1534.76 825.774 1537.21 829.753C1540.67 835.356 1534.95 841.05 1530.63 844.65C1528.85 846.139 1526.82 847.66 1524.69 849.168C1525.72 849.532 1526.58 850.015 1527.15 850.664C1528.4 852.065 1528.25 853.668 1527.28 855.323C1527.54 855.229 1527.81 855.134 1528.07 855.039C1528.88 854.749 1529.69 854.459 1530.54 854.205C1531.38 853.956 1532.28 853.668 1533.21 853.368C1537.48 852 1542.52 850.384 1546.64 851.023C1547.1 851.093 1547.52 851.583 1547.54 851.984C1547.73 855.548 1544.93 859.073 1542.35 862.317L1542.06 862.681C1546.97 863.839 1552.9 866.295 1553.26 870.307C1553.47 872.707 1551.71 874.77 1549.14 876.51C1550.62 877.291 1551.63 878.576 1551.91 880.626C1552.01 881.408 1551.9 882.285 1551.69 883.185C1552.96 882.094 1554.31 881.078 1555.73 880.115L1555.74 880.076L1556.11 879.851C1556.74 879.435 1557.4 879.045 1558.06 878.659C1558.36 878.483 1558.65 878.3 1558.96 878.13C1559.97 877.574 1561.03 877.047 1562.14 876.563C1566.02 874.886 1573.93 873.948 1576.48 878.28C1581.08 886.121 1575.03 896.682 1569.97 905.164L1570.36 904.898C1577.06 900.348 1583.67 895.859 1593.27 897.903C1600.32 899.403 1591.71 909.888 1587.32 915.242L1587.06 915.554C1587.65 915.346 1588.25 915.123 1588.87 914.895C1594.24 912.903 1600.4 910.619 1603.76 916.06C1607.1 921.475 1599.72 927.923 1593.98 932.674L1594.03 932.762C1606.04 928.723 1628.34 924.271 1629.39 935.966C1629.57 937.915 1627.29 939.574 1625.74 940.7C1625.6 940.801 1625.47 940.898 1625.34 940.991C1623.06 942.694 1620.84 944.485 1618.61 946.28C1619.37 946.413 1620.06 946.731 1620.62 947.328C1623.16 950.026 1622.73 954.067 1621.69 957.513C1621.84 957.792 1621.91 958.098 1621.71 958.383C1621.56 958.6 1621.37 958.782 1621.21 958.978C1621.02 959.526 1620.81 960.04 1620.61 960.523C1619.29 963.728 1617.41 966.487 1615.32 969.085L1615.56 969.067C1617.31 966.997 1618.96 964.868 1620.53 962.846C1621.57 961.501 1622.58 960.203 1623.55 959.003C1623.7 958.815 1623.89 958.583 1624.1 958.318C1626.2 955.664 1630.93 949.678 1634.37 951.288C1638.12 953.029 1635.82 958.047 1634.59 960.708L1634.45 961.02C1633.28 963.613 1631.2 966.358 1628.7 968.971C1637.06 969.573 1646.31 971.668 1641.04 978.184C1638.12 981.794 1631.92 984.134 1627.4 985.636C1626.24 986.019 1625.04 986.432 1623.8 986.859C1620.06 988.141 1615.97 989.544 1611.86 990.616C1612.81 990.926 1613.74 991.25 1614.62 991.539C1619.42 993.144 1631.34 997.524 1634.08 1002.03C1634.35 1002.47 1634.53 1002.86 1634.68 1003.23L1634.75 1003.42C1634.87 1003.76 1634.94 1004.07 1634.96 1004.35L1634.96 1004.54C1634.96 1004.81 1634.93 1005.07 1634.84 1005.29L1634.78 1005.4C1634.68 1005.6 1634.55 1005.78 1634.39 1005.94L1634.29 1006.05C1634.1 1006.21 1633.86 1006.35 1633.6 1006.47L1633.39 1006.57C1633.11 1006.68 1632.81 1006.78 1632.48 1006.85L1632.22 1006.9C1631.88 1006.97 1631.51 1007.03 1631.11 1007.06L1631.01 1007.08C1630.57 1007.11 1630.09 1007.12 1629.59 1007.13L1629.33 1007.13C1628.83 1007.12 1628.31 1007.1 1627.77 1007.07L1627.5 1007.05L1626.98 1007.01L1626.98 1007C1622.72 1006.65 1617.39 1005.53 1612.51 1004.32C1619.54 1009.41 1625.4 1015.31 1627.48 1022.12C1629.2 1027.79 1619.26 1024.55 1610.05 1020.53C1610.22 1020.69 1610.4 1020.84 1610.58 1020.99C1611.08 1021.42 1611.59 1021.85 1612.05 1022.34C1617.28 1027.82 1621.43 1034.09 1624.51 1040.73C1631.04 1054.83 1614.53 1048.03 1607.33 1044.26C1604.87 1042.96 1602.43 1041.63 1600.02 1040.25C1601.25 1041.41 1602.36 1042.63 1603.5 1043.88L1603.66 1044.06C1607.14 1047.92 1610.37 1053.25 1611.53 1058.33L1611.53 1058.33C1611.7 1059.07 1611.82 1059.79 1611.89 1060.51C1612.36 1065.06 1611.73 1069.84 1609.84 1073.32C1615.22 1078.77 1622.41 1086.14 1621.58 1092.68C1621.51 1093.31 1620.78 1093.89 1620.06 1093.83C1613.71 1093.27 1605.35 1089.71 1599.94 1087.03C1596.48 1085.3 1593.19 1083.54 1589.94 1081.73C1595.25 1086.61 1600.11 1091.86 1600.25 1097.38C1600.26 1098 1600.04 1098.36 1599.45 1098.65C1594.77 1100.93 1585.32 1093.94 1579.42 1089.29C1581.1 1094.82 1581.01 1100.31 1579.42 1106.16C1578.67 1108.93 1575.12 1114.19 1571.04 1113.23C1565.22 1111.87 1562.72 1102.3 1561.42 1094.22C1559.05 1106.69 1553.24 1125.05 1545.3 1115.77C1542.56 1112.57 1541.38 1107.27 1541.2 1101.63C1538.16 1107.58 1534.02 1111.81 1529.02 1108.19C1524.09 1104.62 1522.73 1097.27 1521.74 1091.92C1521.7 1091.7 1521.66 1091.49 1521.62 1091.28C1521.58 1091.01 1521.55 1090.73 1521.51 1090.46C1521.48 1090.19 1521.45 1089.92 1521.41 1089.65C1517.34 1089.96 1512.51 1088.63 1508.07 1087.2C1511.35 1089.79 1514.55 1092.45 1517.57 1095.29C1518.11 1095.8 1518.36 1096.74 1517.74 1097.25C1516.32 1098.46 1514.71 1098.35 1512.87 1097.67C1510.35 1096.75 1508.02 1095.57 1505.67 1094.32C1503.51 1093.16 1504.73 1095.36 1505.92 1097.52C1506.51 1098.58 1507.09 1099.63 1507.26 1100.26C1509.22 1107.55 1509.71 1115.88 1508.56 1123.29C1507.94 1127.23 1503.61 1129.78 1500.3 1125.59C1493.31 1116.74 1488.74 1106.84 1484.61 1096.77C1484.68 1105.13 1483.23 1115.57 1472.92 1110.78C1468.12 1108.55 1466.8 1102.39 1465.81 1097.79C1465.67 1097.11 1465.53 1096.47 1465.39 1095.87C1464.26 1091.13 1464.67 1086.92 1465.55 1082.6C1461.7 1086.39 1458.39 1089.63 1451.38 1091.54C1447.82 1092.5 1444.5 1088.96 1444.32 1086.15C1443.77 1078.39 1446.97 1071.01 1450.34 1064.05C1450.67 1063.38 1451.03 1062.63 1451.39 1061.88C1451.03 1057.69 1452.72 1052.98 1454.37 1048.42C1454.57 1047.85 1454.78 1047.28 1454.98 1046.71C1450.23 1053.68 1443.08 1063.05 1435.88 1059.71C1433.13 1058.43 1432.45 1055.87 1432.14 1053.41C1431.88 1051.43 1431.84 1049.42 1431.95 1047.41C1429.51 1052.35 1426.47 1055.14 1423.23 1049.76C1420.89 1045.85 1419.57 1041.58 1418.26 1037.32C1417.76 1035.69 1417.25 1034.06 1416.69 1032.45C1417.63 1035.15 1417.61 1038.1 1417.59 1041.02C1417.57 1043.06 1417.56 1045.09 1417.87 1047.02C1418.35 1050.04 1418.35 1053.96 1417.62 1056.96C1417.53 1057.3 1417.15 1057.5 1416.77 1057.39C1407.01 1054.66 1398.82 1045.76 1393.06 1038.52C1393.91 1039.66 1394.77 1040.8 1395.58 1041.98L1395.74 1042.21C1397.31 1044.49 1398.5 1046.22 1398.36 1048.93C1398.07 1054.83 1383.66 1044.34 1383.08 1043.92L1383.07 1043.91C1379.92 1041.55 1377.27 1038.55 1375.09 1035.24C1374 1035.51 1372.71 1035.57 1371.31 1035.46C1371.22 1036.1 1371.12 1036.73 1370.99 1037.38C1370.55 1039.52 1367.56 1047.31 1364.35 1047.15C1363.18 1047.09 1361.97 1046.99 1360.99 1046.54L1361.01 1046.87C1361.09 1049.64 1359.29 1055.52 1355.26 1055.84C1354.21 1055.92 1353.19 1055.71 1352.2 1055.28C1352.25 1055.58 1352.3 1055.89 1352.32 1056.18C1352.37 1056.99 1351.64 1057.66 1350.69 1057.39C1347.43 1056.45 1344.49 1054.94 1341.66 1053.26C1341.62 1054.33 1341.56 1055.39 1341.47 1056.4C1345.39 1061.61 1347.77 1066.85 1344.29 1069.67C1341.23 1072.16 1336.97 1071.1 1333.79 1068.76C1333.63 1069.64 1333.4 1070.53 1333.17 1071.44C1332.15 1075.29 1327.19 1088.63 1322.05 1089.44C1317.44 1090.16 1316.26 1084.96 1316.24 1079.17C1314.82 1083.13 1313.21 1087.02 1311.28 1091.19C1311.19 1091.37 1311.09 1091.6 1310.98 1091.85C1309.72 1094.67 1306.82 1101.17 1303.1 1100.3C1299.02 1099.35 1298.51 1093.5 1298.18 1089.59C1298.15 1089.26 1298.12 1088.95 1298.09 1088.66C1296.89 1089.2 1295.34 1089.1 1293.65 1087.93C1293.51 1087.84 1293.38 1087.74 1293.25 1087.65C1293.14 1087.56 1293.03 1087.48 1292.92 1087.41C1292.17 1088.34 1291.38 1089.26 1290.49 1090.13C1290.02 1090.59 1289.42 1091.24 1288.73 1091.99C1284.9 1096.14 1278.16 1103.45 1272.84 1100.97C1267.86 1098.66 1267.32 1090.7 1266.96 1085.5C1266.9 1084.6 1266.84 1083.77 1266.77 1083.08C1266.75 1082.92 1266.74 1082.76 1266.74 1082.61C1266.73 1082.55 1266.73 1082.5 1266.73 1082.45C1266.22 1082.47 1265.67 1082.45 1265.09 1082.41C1264.63 1082.94 1264.17 1083.47 1263.7 1084C1262.88 1084.91 1261.82 1084.66 1260.82 1084.05C1258.33 1082.54 1258.1 1080.97 1258.33 1078.78C1256.62 1076.82 1255.29 1074.42 1254.16 1072.38L1254.05 1072.18C1252.15 1073.59 1250.1 1074.87 1247.8 1075.97C1244.2 1077.68 1237.23 1079.39 1233.53 1076.72C1231.5 1075.24 1231.61 1072.93 1232.94 1070.26C1232.15 1069.64 1231.53 1068.89 1231.23 1068.09C1230.8 1066.98 1230.5 1065.84 1230.24 1064.7C1221.36 1067.66 1212.21 1068.41 1204.69 1063.07C1199.38 1059.31 1206.93 1052.34 1215.77 1046.18C1213.82 1045.81 1212.61 1044.59 1211.75 1043.14C1209.9 1043.5 1208.03 1043.83 1206.14 1044.07C1205.84 1044.11 1205.54 1044.15 1205.23 1044.19C1202.9 1044.49 1200.26 1044.83 1197.8 1044.62C1198.22 1046.13 1198.51 1047.68 1198.58 1049.08C1198.59 1049.42 1198.3 1049.71 1197.92 1049.72C1188.18 1050.08 1178.19 1044.3 1170.88 1039.33L1171.02 1039.43C1172.08 1040.19 1173.14 1040.95 1174.15 1041.77L1174.4 1041.96C1176.46 1043.58 1178.03 1044.82 1178.65 1047.35C1180.02 1052.89 1163.63 1047.37 1163.19 1047.21C1157.53 1045.22 1152.58 1041.38 1148.6 1036.87C1149.38 1039.39 1150.01 1041.95 1150.27 1044.75C1150.46 1046.85 1149.88 1054.89 1146.88 1055.68C1144.86 1056.21 1142.61 1056.71 1141.4 1054.65C1139.56 1051.54 1137.08 1048.77 1134.59 1045.98C1134.27 1045.63 1133.95 1045.27 1133.64 1044.91C1135.13 1050.81 1136.09 1058.2 1132.03 1059.85C1134.67 1062.19 1137.35 1064.92 1138.32 1067.51C1138.6 1068.24 1138.11 1069.07 1137.16 1069.1C1132.32 1069.24 1127.8 1068.03 1123.28 1066.82C1122.47 1066.61 1121.67 1066.39 1120.86 1066.18C1128.71 1070.56 1138.24 1076.97 1134.68 1082.27C1132.57 1085.45 1128.35 1085.73 1124.77 1084.51C1124.88 1085.36 1124.92 1086.26 1124.95 1087.16C1125.08 1091 1124.23 1104.71 1119.73 1106.96C1115.68 1108.98 1113.16 1104.54 1111.54 1099.23C1111.32 1103.29 1110.92 1107.33 1110.31 1111.73C1110.28 1111.93 1110.25 1112.16 1110.22 1112.43C1109.84 1115.39 1108.97 1122.22 1105.31 1122.51C1101.3 1122.83 1099.21 1117.59 1097.81 1114.09C1097.49 1113.28 1097.2 1112.56 1096.93 1112.03C1095.91 1109.96 1095.13 1107.85 1094.55 1105.68C1093.87 1109.49 1092.86 1113.24 1090.9 1116.85C1090.59 1117.42 1090.22 1118.19 1089.8 1119.09C1087.42 1124.03 1083.25 1132.72 1077.68 1132C1072.46 1131.34 1069.75 1124.19 1067.98 1119.51C1067.67 1118.69 1067.39 1117.95 1067.13 1117.33C1066.91 1116.81 1066.74 1116.29 1066.57 1115.78C1066.49 1115.55 1066.42 1115.33 1066.34 1115.1C1066.05 1115.74 1065.77 1116.38 1065.48 1117.02C1065.18 1117.7 1064.88 1118.39 1064.57 1119.07C1064.06 1120.15 1063.02 1120.24 1061.93 1119.97C1059.59 1119.4 1058.79 1118.3 1058.36 1116.67C1058.06 1116.85 1057.71 1117.01 1057.32 1117.14C1053.6 1118.33 1049.92 1118.34 1046.34 1117.51C1043.23 1119.91 1038.35 1122.4 1034.81 1121.22C1031.51 1120.13 1031.83 1116.11 1033.65 1111.35C1032.72 1110.68 1031.81 1109.99 1030.91 1109.26C1030.01 1109.99 1029.09 1110.68 1028.16 1111.35C1029.98 1116.11 1030.3 1120.13 1027.01 1121.22C1023.46 1122.4 1018.59 1119.91 1015.48 1117.51C1011.89 1118.34 1008.21 1118.33 1004.5 1117.14C1004.1 1117.01 1003.76 1116.85 1003.46 1116.67C1003.03 1118.3 1002.22 1119.4 999.89 1119.97C998.792 1120.24 997.747 1120.15 997.243 1119.07C996.951 1118.43 996.669 1117.79 996.388 1117.15C996.086 1116.47 995.784 1115.78 995.472 1115.1C995.396 1115.32 995.324 1115.54 995.251 1115.76L995.25 1115.76C995.078 1116.28 994.905 1116.8 994.686 1117.33C994.424 1117.95 994.142 1118.69 993.831 1119.51C992.061 1124.19 989.352 1131.34 984.131 1132C978.561 1132.72 974.39 1124.03 972.018 1119.09C971.59 1118.19 971.22 1117.42 970.911 1116.85C968.955 1113.24 967.942 1109.49 967.264 1105.68C966.679 1107.85 965.902 1109.96 964.88 1112.03C964.615 1112.56 964.328 1113.28 964.003 1114.09C962.607 1117.59 960.516 1122.83 956.502 1122.51C952.838 1122.22 951.972 1115.39 951.596 1112.43C951.563 1112.16 951.533 1111.93 951.505 1111.73C950.89 1107.33 950.492 1103.29 950.277 1099.23C948.653 1104.54 946.132 1108.98 942.082 1106.96C937.584 1104.71 936.737 1091 936.862 1087.16L936.865 1087.08C936.9 1086.21 936.935 1085.34 937.039 1084.51C933.469 1085.73 929.242 1085.45 927.127 1082.27C923.578 1076.97 933.107 1070.56 940.949 1066.18C940.144 1066.39 939.342 1066.6 938.539 1066.82C934.016 1068.03 929.49 1069.24 924.651 1069.1C923.702 1069.07 923.212 1068.24 923.495 1067.51C924.462 1064.92 927.146 1062.19 929.789 1059.85C925.718 1058.2 926.687 1050.81 928.179 1044.91C927.868 1045.26 927.556 1045.61 927.244 1045.96C924.75 1048.75 922.263 1051.53 920.412 1054.65C919.204 1056.71 916.952 1056.21 914.94 1055.68C911.935 1054.89 911.352 1046.85 911.543 1044.75C911.801 1041.95 912.438 1039.39 913.214 1036.87C909.232 1041.38 904.283 1045.22 898.623 1047.21C898.186 1047.37 881.792 1052.89 883.165 1047.35C883.786 1044.82 885.355 1043.58 887.413 1041.96L887.66 1041.77C888.674 1040.95 889.733 1040.19 890.792 1039.43L890.796 1039.43L890.932 1039.33C883.619 1044.3 873.627 1050.08 863.897 1049.72C863.513 1049.71 863.221 1049.42 863.231 1049.08C863.306 1047.68 863.597 1046.13 864.011 1044.62C861.554 1044.83 858.907 1044.49 856.585 1044.19L856.209 1044.14C856.03 1044.12 855.852 1044.09 855.677 1044.07C853.778 1043.83 851.915 1043.5 850.065 1043.14C849.201 1044.59 847.989 1045.81 846.047 1046.18C854.88 1052.34 862.433 1059.31 857.125 1063.07C849.607 1068.41 840.453 1067.66 831.573 1064.7C831.316 1065.84 831.012 1066.98 830.588 1068.09C830.286 1068.89 829.657 1069.64 828.875 1070.26C830.204 1072.93 830.315 1075.24 828.28 1076.72C824.588 1079.39 817.611 1077.68 814.011 1075.97C811.709 1074.87 809.661 1073.59 807.762 1072.18L807.623 1072.43C806.499 1074.46 805.18 1076.84 803.482 1078.78C803.709 1080.97 803.48 1082.54 800.996 1084.05C799.993 1084.66 798.935 1084.91 798.111 1084C797.639 1083.47 797.181 1082.94 796.722 1082.41C796.139 1082.45 795.591 1082.47 795.086 1082.45C795.084 1082.48 795.083 1082.51 795.082 1082.53L795.077 1082.64C795.07 1082.78 795.063 1082.93 795.048 1083.08C794.974 1083.77 794.917 1084.6 794.854 1085.52C794.496 1090.71 793.948 1098.67 788.969 1100.97C783.657 1103.45 776.915 1096.14 773.084 1091.99C772.392 1091.24 771.795 1090.59 771.319 1090.13C770.433 1089.26 769.643 1088.34 768.897 1087.41C768.65 1087.58 768.417 1087.76 768.167 1087.93C766.469 1089.1 764.927 1089.2 763.721 1088.66C763.693 1088.95 763.666 1089.26 763.638 1089.59C763.3 1093.5 762.793 1099.35 758.714 1100.3C754.995 1101.17 752.094 1094.67 750.833 1091.85C750.72 1091.6 750.619 1091.37 750.533 1091.19C748.603 1087.02 746.993 1083.13 745.574 1079.17C745.554 1084.96 744.376 1090.16 739.759 1089.44C734.621 1088.63 729.666 1075.29 728.645 1071.44C728.412 1070.53 728.181 1069.64 728.026 1068.76C724.848 1071.1 720.579 1072.16 717.528 1069.67C714.048 1066.85 716.43 1061.61 720.342 1056.4C720.251 1055.39 720.189 1054.33 720.155 1053.26C717.323 1054.94 714.386 1056.45 711.124 1057.39C710.175 1057.66 709.443 1056.99 709.497 1056.18C709.518 1055.89 709.566 1055.58 709.616 1055.28C708.623 1055.71 707.6 1055.92 706.551 1055.84C702.531 1055.52 700.728 1049.64 700.806 1046.87L700.826 1046.54C699.849 1046.99 698.629 1047.09 697.467 1047.15C694.253 1047.31 691.268 1039.52 690.824 1037.38C690.693 1036.73 690.593 1036.1 690.504 1035.46C689.099 1035.57 687.817 1035.51 686.725 1035.24C684.544 1038.55 681.893 1041.55 678.747 1043.91L678.727 1043.93C678 1044.45 663.747 1054.8 663.451 1048.93C663.317 1046.22 664.505 1044.49 666.067 1042.22L666.237 1041.98C666.997 1040.87 667.806 1039.79 668.612 1038.71L668.614 1038.71L668.757 1038.52C662.989 1045.76 654.808 1054.66 645.045 1057.39C644.663 1057.5 644.283 1057.3 644.194 1056.96C643.463 1053.96 643.459 1050.04 643.947 1047.02C644.256 1045.09 644.241 1043.06 644.227 1041.02C644.206 1038.1 644.185 1035.15 645.121 1032.45C644.56 1034.06 644.057 1035.69 643.554 1037.32C642.242 1041.58 640.927 1045.85 638.582 1049.76C635.344 1055.14 632.301 1052.35 629.865 1047.41C629.969 1049.42 629.931 1051.43 629.676 1053.41C629.362 1055.87 628.687 1058.43 625.937 1059.71C618.735 1063.05 611.587 1053.68 606.837 1046.71C607.039 1047.29 607.247 1047.86 607.455 1048.44C609.095 1053 610.787 1057.7 610.419 1061.88C610.779 1062.63 611.141 1063.38 611.469 1064.05C614.841 1071.01 618.045 1078.39 617.495 1086.15C617.31 1088.96 613.987 1092.5 610.435 1091.54C603.422 1089.63 600.116 1086.39 596.262 1082.6C597.145 1086.92 597.555 1091.13 596.427 1095.87C596.286 1096.47 596.147 1097.12 596.001 1097.8C595.013 1102.4 593.692 1108.56 588.898 1110.78C578.586 1115.57 577.139 1105.13 577.199 1096.77C573.072 1106.84 568.505 1116.74 561.516 1125.59C558.202 1129.78 553.872 1127.23 553.255 1123.29C552.207 1116.57 552.512 1109.1 554.043 1102.33C551.713 1101.85 549.349 1100.74 547.268 1099.76C546.936 1099.61 546.61 1099.45 546.293 1099.31C543.888 1098.2 541.586 1096.96 539.336 1095.66C539.015 1097.13 538.629 1098.64 538.129 1100.11C543.889 1107.81 547.869 1115.41 542.346 1117.18C534.142 1119.82 526.113 1116.67 518.9 1111.57C518.292 1113.19 517.506 1114.62 516.517 1115.77C515.838 1116.57 515.174 1117.16 514.526 1117.57C514.454 1119.37 513.716 1120.7 512.026 1121.27C507.893 1122.64 501.945 1119.02 499.106 1116.4C497.273 1114.7 495.723 1112.9 494.353 1111.04C493.325 1112.14 492.14 1112.91 490.772 1113.23C490.19 1113.37 489.618 1113.38 489.064 1113.29C489.018 1113.62 488.969 1113.95 488.916 1114.28L488.872 1114.56C488.424 1117.41 488.141 1119.22 484.895 1120.01C483.799 1120.28 482.753 1120.2 482.248 1119.12C481.941 1118.45 481.647 1117.78 481.354 1117.11C481.064 1116.46 480.776 1115.8 480.477 1115.15C480.396 1115.38 480.32 1115.61 480.243 1115.84C480.074 1116.35 479.905 1116.86 479.691 1117.37C479.428 1117.99 479.146 1118.74 478.834 1119.56L478.833 1119.56C477.061 1124.23 474.351 1131.37 469.129 1132.03C463.556 1132.74 459.382 1124.06 457.01 1119.12C456.583 1118.23 456.214 1117.47 455.906 1116.9C453.947 1113.29 452.936 1109.55 452.258 1105.74C451.673 1107.9 450.893 1110.02 449.873 1112.08C449.607 1112.62 449.319 1113.34 448.993 1114.15C447.595 1117.64 445.503 1122.87 441.49 1122.55C437.826 1122.26 436.96 1115.44 436.584 1112.48L436.583 1112.48C436.55 1112.21 436.52 1111.98 436.493 1111.78C435.875 1107.39 435.475 1103.35 435.264 1099.3C433.639 1104.6 431.116 1109.03 427.064 1107.02C422.561 1104.77 421.717 1091.07 421.844 1087.24L421.846 1087.17C421.881 1086.3 421.916 1085.43 422.018 1084.6C418.447 1085.81 414.22 1085.54 412.105 1082.36C408.552 1077.06 418.085 1070.66 425.932 1066.29C425.709 1066.35 425.486 1066.41 425.264 1066.46C424.681 1066.62 424.099 1066.77 423.516 1066.93C418.992 1068.14 414.466 1069.35 409.627 1069.2C408.678 1069.18 408.188 1068.35 408.469 1067.61C409.438 1065.03 412.123 1062.3 414.765 1059.97C410.695 1058.32 411.662 1050.93 413.156 1045.05C413.082 1045.13 413.007 1045.21 412.933 1045.3C412.692 1045.57 412.451 1045.84 412.211 1046.11C409.719 1048.89 407.233 1051.66 405.385 1054.77C404.178 1056.83 401.924 1056.33 399.911 1055.8C396.905 1055.01 396.321 1046.98 396.512 1044.89C396.772 1042.09 397.409 1039.53 398.182 1037.02C394.2 1041.52 389.251 1045.35 383.587 1047.34C383.152 1047.5 366.749 1053.02 368.125 1047.48C368.743 1044.96 370.313 1043.72 372.37 1042.1L372.621 1041.9C373.652 1041.08 374.727 1040.31 375.803 1039.53L375.893 1039.47C368.577 1044.43 358.583 1050.21 348.849 1049.85C348.465 1049.84 348.171 1049.55 348.181 1049.21C348.253 1047.81 348.549 1046.27 348.961 1044.75C346.506 1044.96 343.859 1044.62 341.536 1044.32C341.226 1044.28 340.921 1044.24 340.624 1044.21C338.726 1043.97 336.86 1043.64 335.01 1043.27C334.147 1044.73 332.934 1045.94 330.988 1046.31C339.826 1052.47 347.383 1059.42 342.072 1063.18C334.551 1068.51 325.396 1067.77 316.512 1064.81C316.254 1065.95 315.949 1067.09 315.524 1068.2C315.223 1068.99 314.595 1069.74 313.811 1070.37C315.14 1073.03 315.253 1075.34 313.216 1076.81C309.522 1079.48 302.542 1077.77 298.943 1076.06C296.638 1074.97 294.589 1073.69 292.689 1072.28L292.57 1072.5C291.443 1074.53 290.117 1076.92 288.41 1078.87C288.637 1081.06 288.406 1082.63 285.92 1084.14C284.919 1084.75 283.859 1085 283.034 1084.09C282.699 1083.71 282.373 1083.33 282.047 1082.96C281.913 1082.8 281.779 1082.65 281.645 1082.5C281.064 1082.54 280.515 1082.56 280.008 1082.54C279.996 1082.75 279.992 1082.95 279.97 1083.16C279.896 1083.86 279.839 1084.68 279.777 1085.59C279.419 1090.78 278.872 1098.73 273.891 1101.04C268.574 1103.51 261.825 1096.21 257.994 1092.06C257.304 1091.32 256.709 1090.67 256.233 1090.21C255.347 1089.34 254.556 1088.43 253.808 1087.49C253.697 1087.57 253.588 1087.65 253.48 1087.73C253.348 1087.82 253.216 1087.92 253.078 1088.02C251.381 1089.18 249.839 1089.28 248.63 1088.74C248.603 1089.03 248.576 1089.34 248.547 1089.67C248.209 1093.57 247.702 1099.42 243.623 1100.37C239.902 1101.23 236.996 1094.74 235.736 1091.93C235.623 1091.67 235.523 1091.45 235.437 1091.26C233.507 1087.1 231.897 1083.22 230.477 1079.26C230.457 1085.05 229.279 1090.24 224.659 1089.52C219.518 1088.71 214.563 1075.39 213.541 1071.54C213.307 1070.64 213.077 1069.74 212.922 1068.86C209.743 1071.2 205.473 1072.26 202.419 1069.78C198.938 1066.96 201.321 1061.73 205.235 1056.52C205.143 1055.51 205.081 1054.46 205.047 1053.38C202.213 1055.07 199.275 1056.57 196.012 1057.51C195.065 1057.78 194.331 1057.11 194.386 1056.3C194.406 1056.01 194.453 1055.7 194.504 1055.4C193.511 1055.83 192.487 1056.04 191.438 1055.96C187.416 1055.64 185.612 1049.77 185.692 1047L185.711 1046.67C184.733 1047.12 183.513 1047.22 182.352 1047.28C179.135 1047.44 176.148 1039.66 175.705 1037.52C175.574 1036.88 175.474 1036.24 175.385 1035.61C173.978 1035.71 172.696 1035.65 171.605 1035.38C169.423 1038.69 166.769 1041.68 163.623 1044.05L163.609 1044.06C162.972 1044.52 148.617 1054.94 148.321 1049.06C148.186 1046.35 149.373 1044.63 150.932 1042.37L151.106 1042.11C151.873 1041 152.687 1039.92 153.498 1038.84L153.629 1038.66C147.858 1045.89 139.674 1054.78 129.905 1057.51C129.524 1057.61 129.143 1057.42 129.056 1057.08C128.323 1054.09 128.32 1050.17 128.809 1047.15C129.117 1045.22 129.103 1043.2 129.088 1041.16C129.068 1038.24 129.047 1035.29 129.982 1032.6C129.422 1034.21 128.918 1035.84 128.415 1037.47C127.103 1041.72 125.788 1045.98 123.442 1049.89C120.203 1055.26 117.157 1052.48 114.721 1047.54C114.825 1049.55 114.787 1051.55 114.53 1053.54C114.217 1055.99 113.542 1058.54 110.792 1059.83C103.586 1063.17 96.4353 1053.8 91.6837 1046.85C91.885 1047.41 92.0914 1047.99 92.2986 1048.56C93.9406 1053.11 95.6348 1057.81 95.2671 1061.99C95.6271 1062.75 95.9883 1063.49 96.3174 1064.16C99.6911 1071.11 102.898 1078.49 102.346 1086.23C102.16 1089.04 98.8372 1092.58 95.283 1091.62C88.2677 1089.71 84.9592 1086.47 81.1055 1082.69C81.9883 1087 82.3969 1091.2 81.268 1095.95C81.1268 1096.54 80.9884 1097.18 80.8428 1097.86C79.8558 1102.46 78.5352 1108.61 73.7375 1110.83C63.4198 1115.62 61.9722 1105.19 62.0335 1096.84C57.905 1106.9 53.3373 1116.79 46.3439 1125.62C43.0283 1129.81 38.6971 1127.26 38.0797 1123.33C36.9234 1115.93 37.4144 1107.61 39.3805 1100.33C39.5524 1099.69 40.1327 1098.65 40.7189 1097.59C41.914 1095.43 43.1337 1093.23 40.9672 1094.39C38.6201 1095.64 36.2919 1096.82 33.7673 1097.74C31.93 1098.42 30.3134 1098.53 28.8972 1097.32C28.2735 1096.81 28.528 1095.87 29.07 1095.36C32.0855 1092.53 35.2912 1089.87 38.5738 1087.28C34.1247 1088.71 29.2899 1090.03 25.2258 1089.73C25.1801 1090 25.1494 1090.27 25.1187 1090.54C25.0876 1090.81 25.0564 1091.08 25.0097 1091.36C24.971 1091.56 24.9319 1091.77 24.8922 1091.99C23.9042 1097.34 22.5477 1104.68 17.6135 1108.24C12.6067 1111.86 8.47112 1107.64 5.4194 1101.69C5.24646 1107.33 4.06831 1112.62 1.32687 1115.82C-6.6161 1125.08 -12.435 1106.75 -14.7978 1094.3C-16.1049 1102.36 -18.5995 1111.92 -24.4273 1113.28C-28.5104 1114.24 -32.0584 1108.99 -32.8108 1106.22C-34.4022 1100.38 -34.4941 1094.9 -32.8149 1089.37C-38.7108 1094.02 -48.1667 1101 -52.8483 1098.72C-53.435 1098.43 -53.6637 1098.07 -53.644 1097.45C-53.5056 1091.94 -48.6489 1086.69 -43.3366 1081.82C-46.5862 1083.62 -49.8806 1085.39 -53.3383 1087.11C-58.7528 1089.79 -67.1144 1093.35 -73.4644 1093.9C-74.1925 1093.97 -74.9161 1093.38 -74.9899 1092.76C-75.8185 1086.23 -68.6202 1078.86 -63.2435 1073.42C-65.1382 1069.95 -65.7649 1065.16 -65.2992 1060.62C-65.2246 1059.91 -65.0997 1059.18 -64.9332 1058.45L-64.9316 1058.44V1058.45C-63.7754 1053.38 -60.5453 1048.05 -57.0576 1044.19L-56.9319 1044.05L-56.9309 1044.05C-55.7863 1042.8 -54.6611 1041.56 -53.4232 1040.39C-55.8268 1041.77 -58.2736 1043.1 -60.7275 1044.39C-67.9331 1048.16 -84.4474 1054.95 -77.9143 1040.86C-74.8344 1034.24 -70.6894 1027.97 -65.4531 1022.5C-64.9902 1022.01 -64.483 1021.58 -63.9767 1021.15C-63.8012 1021 -63.625 1020.85 -63.4516 1020.7C-72.6633 1024.7 -82.6077 1027.94 -80.889 1022.29C-78.8097 1015.48 -72.95 1009.58 -65.9135 1004.51C-70.7899 1005.71 -76.1296 1006.83 -80.3919 1007.18L-80.3933 1007.19L-80.9103 1007.23L-81.1789 1007.25C-81.7201 1007.28 -82.2401 1007.3 -82.7374 1007.31L-83.006 1007.3C-83.5007 1007.3 -83.9783 1007.29 -84.4183 1007.25L-84.518 1007.24C-84.9186 1007.21 -85.2878 1007.15 -85.6359 1007.08L-85.888 1007.03C-86.2234 1006.96 -86.5257 1006.86 -86.8 1006.75L-87.0159 1006.65C-87.2767 1006.53 -87.51 1006.39 -87.6992 1006.23L-87.799 1006.12C-87.9624 1005.96 -88.0928 1005.78 -88.1895 1005.58L-88.2484 1005.47C-88.3387 1005.25 -88.3741 1004.99 -88.3741 1004.72L-88.3701 1004.53C-88.3505 1004.25 -88.2846 1003.94 -88.1668 1003.6L-88.0913 1003.41C-87.946 1003.04 -87.7614 1002.65 -87.4973 1002.22C-84.7474 997.714 -72.8235 993.34 -68.0242 991.736C-67.636 991.609 -67.2381 991.475 -66.8325 991.338L-66.8314 991.337C-66.3189 991.164 -65.794 990.987 -65.2606 990.815C-69.3711 989.746 -73.4537 988.347 -77.1874 987.068L-77.1895 987.067C-78.4382 986.64 -79.6479 986.225 -80.8065 985.841C-85.3278 984.341 -91.5326 982.003 -94.457 978.398C-99.7277 971.889 -90.472 969.797 -82.1098 969.196C-77.0198 968.742 -72.9652 968.326 -69.7936 967.942C-70.8333 966.56 -71.8027 965.121 -72.6519 963.586C-73.1658 963.535 -73.6821 963.484 -74.1981 963.433C-80.8693 962.772 -87.471 962.119 -87.8643 961.254C-87.9098 961.154 -87.9575 961.051 -88.007 960.943C-89.2297 958.286 -91.5359 953.273 -87.7803 951.534C-86.9628 951.152 -82.4465 951.269 -75.8502 951.708C-75.6761 950.184 -75.1335 948.754 -74.0276 947.579C-73.4668 946.982 -72.7749 946.664 -72.0168 946.532C-74.2428 944.739 -76.4713 942.95 -78.7478 941.249C-78.8738 941.156 -79.0083 941.059 -79.1489 940.957C-80.6986 939.833 -82.9837 938.176 -82.8001 936.231C-81.7492 924.549 -59.4425 928.996 -47.4221 933.031L-47.3789 932.942C-53.1145 928.197 -60.5045 921.757 -57.1568 916.349C-53.7964 910.914 -47.6362 913.195 -42.2619 915.185C-41.6486 915.412 -41.0454 915.635 -40.4578 915.842L-40.7169 915.527C-45.1134 910.178 -53.717 899.711 -46.6648 898.213C-37.0567 896.171 -30.447 900.655 -23.7482 905.198L-23.3551 905.465C-28.4137 896.994 -34.469 886.446 -29.8707 878.614C-27.3147 874.287 -19.4017 875.223 -15.5197 876.899C-14.4083 877.382 -13.3564 877.908 -12.3415 878.464C-12.1458 878.57 -11.9589 878.683 -11.7716 878.795L-11.77 878.796C-11.6609 878.862 -11.5517 878.927 -11.4406 878.992C-10.7752 879.378 -10.1171 879.767 -9.48946 880.182L-9.12026 880.407L-9.1092 880.447C-7.68751 881.408 -6.3356 882.423 -5.07095 883.513C-5.27525 882.613 -5.3947 881.738 -5.28853 880.956C-5.00961 878.909 -3.99713 877.625 -2.51813 876.845C-5.09225 875.108 -6.85258 873.047 -6.63803 870.65C-6.28151 866.643 -0.344589 864.19 4.56317 863.034L4.26353 862.657C1.6889 859.421 -1.10925 855.904 -0.916473 852.349C-0.895966 851.948 -0.478104 851.459 -0.0202332 851.389C4.1095 850.751 9.14899 852.365 13.4153 853.732C14.3497 854.031 15.247 854.318 16.0896 854.568C16.9367 854.821 17.7486 855.111 18.5575 855.401C18.8228 855.496 19.0876 855.591 19.3534 855.684C18.3833 854.031 18.2254 852.43 19.4759 851.03C20.0556 850.382 20.9079 849.9 21.9424 849.537C19.8145 848.03 17.7753 846.512 15.9993 845.024C11.675 841.428 5.95268 835.741 9.4136 830.145C11.8675 826.171 19.5882 826.872 23.4977 827.328C27.7944 827.823 31.0086 829.585 33.9495 831.732C31.1327 826.509 29.2263 820.871 32.7171 819.047C37.1999 816.699 41.9915 819.425 46.0957 823.519C44.9622 818.923 44.608 814.315 46.1169 810.209C46.3942 809.419 48.0925 807.821 49.0877 808.804C51.148 810.834 54.4779 814.206 57.2969 817.937C59.7576 817.441 62.1718 817.533 64.5939 817.625L64.5951 817.625C65.0759 817.643 65.5569 817.661 66.0388 817.675C57.8145 812.324 45.7933 801.478 51.0852 796.492C53.7737 793.969 61.411 795.489 65.8195 796.367C66.6816 796.539 67.4202 796.686 67.9743 796.773C75.9572 798.044 82.8783 800.159 88.6847 804.689C87.5166 800.655 86.3887 796.144 89.222 793.143C90.4632 791.82 92.0592 792.433 93.5627 793.632C92.2392 790.04 91.2399 786.282 92.7481 783.021C93.0278 782.394 94.0576 781.208 95.0001 781.662C96.909 782.596 98.3094 783.643 99.4775 784.769C100.453 774.724 105.223 763.312 113.349 760.576C113.886 760.386 114.685 760.498 115.11 760.844C117.934 763.12 119.532 766.86 120.246 771.154C123.176 766.637 126.697 762.278 131.191 759.359C140.599 753.253 139.171 761.231 137.926 768.183C137.623 769.877 137.33 771.511 137.208 772.865C138.168 772.048 139.139 771.114 140.131 770.16C144.091 766.354 148.391 762.22 153.668 763.849C155.857 764.524 155.016 768.584 154.707 770.078L154.706 770.085C154.681 770.205 154.659 770.309 154.643 770.392C154.478 771.27 154.08 772.458 153.714 773.552C152.78 776.337 152.052 778.51 155.9 773.397C156.405 772.726 156.916 772.026 157.437 771.311L157.439 771.308C161.465 765.79 166.135 759.389 173.738 758.556C177.043 758.197 179.206 761.094 180.67 764.418C180.91 757.169 182.183 748.888 187.058 753.201C196.939 761.975 200.699 774.357 201.523 786.596C202.277 784.551 203.082 782.47 204.261 780.597C206.667 776.798 210.203 771.643 215.294 770.32C222.982 768.323 227.989 770.898 230.666 775.361C232.717 773.23 234.91 771.451 237.122 770.434C248.668 765.079 246.336 776.537 244.75 784.327C244.552 785.303 244.365 786.221 244.218 787.041C250.036 783.704 262.731 776.957 263.754 783.75C264.498 788.645 262.005 793.676 258.176 797.7C266.045 794.592 275.361 793.465 282.948 794.544C285.409 794.891 286.757 795.593 287.398 796.476C291.526 792.528 296.101 789.051 299.266 790.021C303.238 791.232 303.103 798.327 301.993 805.013C305.552 802.984 311.764 805.605 314.993 807.06C318.81 808.779 321.275 811.338 323.377 814.173C322.237 808.546 322.052 802.803 325.772 802.147C330.544 801.3 334.197 805.211 336.828 810.176C337.071 805.617 338.022 801.278 340.548 797.945C341.03 797.297 343.025 796.325 343.667 797.518C345 799.994 347.127 804.064 348.678 808.319C351.072 808.586 353.256 809.371 355.449 810.159L355.45 810.16C355.896 810.32 356.342 810.48 356.79 810.636C350.717 803.308 342.679 789.821 348.933 786.783C352.107 785.252 358.709 788.889 362.512 790.984C363.255 791.393 363.892 791.744 364.375 791.986C371.368 795.498 377.142 799.466 381.224 805.331C381.278 801.278 381.491 796.796 384.926 794.87C386.436 794.018 387.733 795.052 388.785 796.596C388.57 792.904 388.692 789.152 390.977 786.596C391.417 786.1 392.694 785.312 393.428 786.009C394.926 787.421 395.925 788.791 396.681 790.172C400.379 781.222 407.932 772.124 416.169 771.983C416.71 771.973 417.412 772.309 417.709 772.751C419.674 775.671 420.102 779.579 419.561 783.737C423.51 780.44 427.965 777.464 432.903 776.094C443.261 773.234 439.724 780.161 436.644 786.191C435.895 787.657 435.173 789.07 434.685 790.277C435.793 789.807 436.943 789.233 438.119 788.647C442.819 786.303 447.923 783.758 452.326 786.802C454.148 788.063 452.259 791.534 451.555 792.829C451.495 792.939 451.443 793.034 451.404 793.11C451.009 793.864 450.316 794.833 449.678 795.728C448.042 798.018 446.758 799.815 451.721 796.234C452.376 795.763 453.044 795.266 453.726 794.758C458.96 790.864 465.027 786.35 472.246 787.811C475.391 788.455 476.572 791.748 476.99 795.229C479.23 788.634 482.707 781.395 485.985 786.787C492.633 797.745 492.649 810.236 490.002 821.724C490.811 820.661 491.677 819.623 492.594 818.628L492.592 818.585C493.093 818.034 493.624 817.502 494.189 817.017C497.457 814.227 502.14 810.523 507.187 810.791C514.817 811.21 518.7 815.04 519.922 819.926C522.396 818.566 524.911 817.58 527.228 817.291C536.126 816.151 535.606 821.173 533.266 826.575C535.285 826.564 537.241 826.765 538.68 826.933C542.974 827.429 546.186 829.193 549.126 831.342C546.31 826.113 544.405 820.468 547.894 818.642C552.375 816.291 557.165 819.02 561.267 823.119C560.135 818.518 559.782 813.905 561.289 809.793C561.567 809.002 563.263 807.403 564.258 808.386C566.318 810.419 569.647 813.795 572.465 817.531C574.924 817.034 577.337 817.126 579.759 817.218L579.76 817.218C580.24 817.236 580.721 817.254 581.203 817.268C572.982 811.911 560.964 801.052 566.256 796.06C568.943 793.534 576.578 795.056 580.984 795.935C581.845 796.107 582.583 796.254 583.137 796.341C591.117 797.614 598.035 799.732 603.84 804.267C602.673 800.227 601.545 795.711 604.377 792.707C605.617 791.383 607.213 791.996 608.715 793.197C607.392 789.6 606.395 785.837 607.903 782.573C608.18 781.945 609.209 780.757 610.152 781.212C612.06 782.147 613.461 783.195 614.626 784.323C615.603 774.266 620.371 762.84 628.494 760.101C629.031 759.911 629.828 760.022 630.255 760.369C633.077 762.648 634.675 766.392 635.388 770.691C638.315 766.169 641.837 761.805 646.329 758.882C655.734 752.768 654.306 760.757 653.061 767.718C652.758 769.414 652.465 771.049 652.343 772.404C653.303 771.586 654.274 770.65 655.267 769.695C659.225 765.884 663.521 761.747 668.796 763.377C670.988 764.054 670.142 768.132 669.833 769.622L669.832 769.629C669.807 769.746 669.786 769.847 669.771 769.929C669.606 770.808 669.208 771.997 668.841 773.092C667.908 775.881 667.18 778.057 671.027 772.937C671.533 772.263 672.046 771.559 672.569 770.841C676.593 765.317 681.259 758.912 688.858 758.078C692.161 757.719 694.323 760.619 695.787 763.948C696.026 756.69 697.3 748.399 702.173 752.717C712.05 761.501 715.807 773.898 716.631 786.151C717.385 784.104 718.191 782.021 719.369 780.145C721.773 776.342 725.309 771.181 730.398 769.857C738.083 767.857 743.088 770.435 745.763 774.904C747.813 772.77 750.006 770.989 752.215 769.97C763.758 764.608 761.426 776.083 759.842 783.882L759.841 783.888C759.643 784.862 759.457 785.779 759.311 786.598C765.126 783.257 777.816 776.501 778.839 783.302C779.58 788.203 777.09 793.24 773.263 797.269C781.126 794.157 790.441 793.029 798.025 794.11C800.485 794.457 801.832 795.159 802.473 796.044C806.6 792.091 811.173 788.61 814.334 789.581C818.304 790.794 818.17 797.897 817.062 804.591C820.62 802.56 826.829 805.184 830.057 806.64C833.87 808.361 836.337 810.923 838.435 813.762C837.297 808.128 837.111 802.378 840.831 801.721C845.601 800.874 849.251 804.789 851.883 809.76C852.124 805.196 853.077 800.851 855.601 797.515C856.084 796.866 858.078 795.893 858.717 797.087C860.049 799.566 862.176 803.641 863.726 807.901C866.117 808.168 868.295 808.951 870.484 809.739C870.935 809.901 871.385 810.063 871.838 810.221C865.766 802.884 857.732 789.381 863.981 786.339C867.154 784.807 873.748 788.445 877.551 790.543C878.296 790.954 878.934 791.306 879.418 791.548C886.409 795.064 892.178 799.037 896.261 804.909C896.313 800.851 896.528 796.364 899.961 794.436C901.471 793.583 902.765 794.618 903.817 796.164C903.602 792.467 903.724 788.711 906.01 786.151C906.448 785.656 907.726 784.866 908.458 785.565C909.957 786.978 910.956 788.35 911.712 789.732C915.409 780.771 922.958 771.662 931.192 771.522C931.732 771.511 932.434 771.848 932.731 772.29C934.693 775.214 935.123 779.127 934.581 783.29C938.53 779.988 942.981 777.009 947.917 775.637C958.274 772.773 954.736 779.711 951.656 785.75C950.908 787.216 950.187 788.63 949.698 789.837C950.806 789.366 951.956 788.792 953.131 788.205C957.829 785.859 962.931 783.311 967.333 786.358C969.158 787.622 967.261 791.108 966.558 792.399L966.484 792.535C966.456 792.587 966.432 792.633 966.41 792.674C966.016 793.429 965.323 794.4 964.685 795.296C963.051 797.588 961.769 799.386 966.732 795.802C967.385 795.33 968.052 794.833 968.732 794.326C973.963 790.427 980.029 785.906 987.246 787.368C990.388 788.013 991.57 791.31 991.988 794.796C994.225 788.193 997.703 780.945 1000.98 786.344C1007.62 797.314 1007.64 809.82 1005 821.322C1005.8 820.258 1006.67 819.219 1007.59 818.223L1007.58 818.179C1008.08 817.628 1008.62 817.095 1009.18 816.609C1012.45 813.816 1017.13 810.107 1022.17 810.376C1025.97 810.584 1028.83 811.638 1030.91 813.246ZM836.232 1039.83L836.15 1039.78L836.212 1039.8L836.232 1039.83ZM869.131 1029.32L869.547 1029.16C868.769 1030.82 868.22 1032.62 867.69 1034.42C867.278 1034.06 866.829 1033.71 866.369 1033.35C867.014 1032.43 867.648 1031.5 868.282 1030.57L868.286 1030.56L868.716 1029.93C868.854 1029.72 868.992 1029.52 869.131 1029.32ZM821.43 826.756C820.813 826.854 820.24 827.003 819.776 827.28C819.348 827.536 819.036 827.85 818.789 828.191C818.656 828.271 818.52 828.345 818.384 828.42C818.204 828.518 818.024 828.616 817.85 828.728C817.53 828.934 817.214 829.14 816.898 829.346L816.891 829.35L816.88 829.357C816.624 829.524 816.368 829.691 816.111 829.856L815.828 829.656L815.938 829.518L816.077 829.345C816.432 828.9 816.788 828.455 817.13 828.005C818.029 826.85 819.165 825.384 820.312 823.751C820.938 824.619 821.597 825.499 822.268 826.381C822.182 826.42 822.095 826.458 822.008 826.495C821.814 826.58 821.62 826.664 821.43 826.756ZM1005.44 1104.76C1005.15 1104.23 1004.86 1103.7 1004.58 1103.17C1004.6 1104.16 1004.61 1105.16 1004.59 1106.15C1004.86 1105.69 1005.14 1105.23 1005.44 1104.76ZM1056.38 1104.76C1056.67 1105.23 1056.96 1105.69 1057.22 1106.15C1057.21 1105.16 1057.21 1104.16 1057.23 1103.17C1056.95 1103.7 1056.67 1104.23 1056.38 1104.76ZM-68.9636 969.291C-69.0583 969.18 -69.071 969.07 -69.0071 968.961C-68.915 969.078 -68.8224 969.194 -68.7294 969.31L-68.9636 969.291ZM321.173 1039.97L321.088 1039.92L321.151 1039.94L321.173 1039.97ZM354.083 1029.47L354.499 1029.31C353.723 1030.97 353.172 1032.77 352.643 1034.57C352.229 1034.21 351.782 1033.85 351.32 1033.5C352.011 1032.51 352.691 1031.51 353.37 1030.52C353.608 1030.17 353.845 1029.82 354.083 1029.47ZM306.365 827.151C305.747 827.249 305.172 827.398 304.71 827.675C304.281 827.931 303.968 828.244 303.72 828.585C303.587 828.665 303.451 828.739 303.316 828.813C303.136 828.911 302.956 829.009 302.781 829.121C302.446 829.337 302.113 829.554 301.78 829.77C301.535 829.93 301.289 830.089 301.044 830.248L300.76 830.048C300.863 829.919 300.966 829.79 301.069 829.662L301.072 829.658C301.406 829.239 301.739 828.821 302.061 828.399C302.96 827.245 304.096 825.781 305.245 824.15C305.87 825.017 306.53 825.896 307.203 826.777C307.118 826.815 307.033 826.852 306.948 826.889L306.943 826.891C306.749 826.975 306.555 827.06 306.365 827.151ZM1225.66 1039.78L1225.6 1039.8L1225.58 1039.83L1225.66 1039.78ZM1194.12 1034.42C1194.54 1034.06 1194.98 1033.71 1195.44 1033.35C1194.77 1032.39 1194.12 1031.42 1193.46 1030.45C1193.2 1030.08 1192.94 1029.7 1192.68 1029.32L1192.27 1029.16C1193.04 1030.82 1193.59 1032.62 1194.12 1034.42ZM1241.5 823.751C1240.88 824.619 1240.22 825.499 1239.54 826.381C1239.62 826.417 1239.7 826.451 1239.78 826.486C1239.99 826.574 1240.19 826.661 1240.38 826.756C1241 826.854 1241.58 827.003 1242.04 827.28C1242.46 827.536 1242.78 827.85 1243.02 828.191C1243.16 828.271 1243.29 828.345 1243.43 828.42C1243.61 828.518 1243.79 828.616 1243.96 828.728C1244.33 828.962 1244.69 829.198 1245.05 829.432C1245.27 829.574 1245.48 829.716 1245.7 829.856L1245.98 829.656C1245.88 829.526 1245.78 829.396 1245.67 829.266C1245.34 828.847 1245.01 828.428 1244.68 828.005C1243.78 826.85 1242.65 825.384 1241.5 823.751Z" fill="#282A36"/>
</g>
<defs>
<clipPath id="clip0">
<rect width="1538" height="1026" fill="white"/>
</clipPath>
</defs>
</svg>
