<svg width="1538" height="1026" viewBox="0 0 1538 1026" fill="none" xmlns="http://www.w3.org/2000/svg">
<g clip-path="url(#clip0)">
<path d="M1344.43 551.658C1325.79 549.199 1306.95 548.27 1288.16 548.881C1261.16 549.762 1233 553.644 1207.98 543.437C1200.56 540.413 1193.56 536.186 1185.74 534.491C1178.95 533.017 1171.91 533.534 1165 534.288C1143.05 536.682 1121.35 541.406 1100.39 548.354C1097.52 549.302 1094.35 550.285 1091.59 549.078C1089.41 548.128 1088.01 546.033 1086.22 544.474C1082.7 541.402 1077.8 540.517 1073.14 540.189C1039.31 537.815 1003.38 557.947 972.914 543.037C956.191 552.132 933.937 555.121 914.979 553.443C905.101 552.567 895.151 550.184 885.381 551.885C874.455 553.788 864.942 560.609 854.142 563.124C834.757 567.637 814.953 557.752 795.054 557.797C779.907 557.834 765.21 563.635 750.064 563.621C738.301 563.609 726.26 560.116 714.979 563.446C704.219 566.623 695.475 575.713 684.31 576.787C677.259 577.464 670.338 574.794 663.276 574.238C638.678 572.303 612.643 595.392 591.751 582.259C578.807 592.71 559.615 597.795 542.998 598.478C534.533 598.825 526.019 597.797 517.603 598.774C505.629 600.163 494.526 605.512 483.687 610.784C464.371 620.178 445.056 629.572 425.739 638.966C418.402 642.535 411.062 646.103 403.723 649.671C377.923 662.219 351.556 674.942 323.111 678.658C307.538 680.696 289.872 680.741 279.042 692.123C252.519 687.416 227.934 709.85 201.022 711.006C191.434 711.418 181.829 708.948 172.29 710.002C153.084 712.122 137.556 727.998 118.376 730.35C100.172 732.578 82.339 722.185 64.0522 723.582C52.4433 724.471 41.3082 730.091 29.7018 729.168C21.653 728.528 14.1648 724.775 6.18804 723.521C-1.78714 722.267 -11.4797 724.613 -14.5349 732.09V836.193H1534.34V553.609C1479.99 551.208 1420.58 551.752 1366.33 555.811C1358.41 556.402 1352.3 552.698 1344.43 551.658" fill="#406AA9"/>
</g>
<defs>
<clipPath id="clip0">
<rect width="1538" height="1026" fill="white"/>
</clipPath>
</defs>
</svg>
